# xmcd
#
# Track frame offsets:
#  150
#  17970
#  37600
#  64120
#  75275
#  114790
#  132015
#  150795
#  176202
#  191750
#  207708
#  234985
#  250104
#  273555
#
# Disc length: 4079 seconds
#
# Revision: 0
# Processed by: cddbd v1.5.1PL2 Copyright (c) Steve Scherf et al.
# Submitted via: Collectorz.com Music Collector 6.9
#
DISCID=ac0fed0e
DTITLE=Λουκιανός Κηλαηδόνης - Νέα Κυψέλη - Νέα Ορλεάνη
DYEAR=1900
DGENRE=
TTITLE0=Bourbon street parade
TTITLE1=A happy family
TTITLE2=Careless love
TTITLE3=Το θαύμα
TTITLE4=E la nave va
TTITLE5=Ένα γουρούνι λιγότερο
TTITLE6=Salee dames
TTITLE7=Νέα Κυψέλη, Νέα Ορλεάνη
TTITLE8=Αχ! Ρίτα
TTITLE9=Προς νέον συνθέτη
TTITLE10=Ice cream
TTITLE11=Νύχτα καταστροφής
TTITLE12=Κωδ. 666/69
TTITLE13=When the saints go marching in
EXTD=
EXTT0=
EXTT1=
EXTT2=
EXTT3=
EXTT4=
EXTT5=
EXTT6=
EXTT7=
EXTT8=
EXTT9=
EXTT10=
EXTT11=
EXTT12=
EXTT13=
PLAYORDER=
